# xmcd
#
# Track frame offsets:
#	150
#	13866
#	27094
#	41754
#	52417
#	65069
#	79359
#	89844
#	103998
#	115115
#	126758
#	139663
#	151456
#	164598
#	178955
#	190764
#	201257
#	214218
#	226630
#	237434
#	250759
#	263637
#	277251
#	290999
#	304943
#
# Disc length: 4215 seconds
# Revision: 0
# Processed by: cddbd v1.5.2PL0 Copyright (c) Steve Scherf et al.
# Submitted via: dBpowerAMP V12.0
#
DISCID=8d107519
DTITLE=Various Artist - Essential Memphis Blues
DYEAR=1900
DGENRE=Blues
TTITLE0=B.B. King - Three O'Clock Blues
TTITLE1=Howlin' Wolf - Moanin' At Midnight
TTITLE2=Willie Nix - Riding In the Moonlight
TTITLE3=Little Junior's Blue Flames - Mystery Train
TTITLE4=Bukka White - Fixin' To Die Blues
TTITLE5=Sleepy John Estes - Registration Day Blues
TTITLE6=Jimmy DeBerry - Take a Little Chance
TTITLE7=Shakey Horton - Have a Good Time
TTITLE8=Billy Love - You're Gonna Cry
TTITLE9=Little Milton - If You Love Me
TTITLE10=Memphis Minnie - New Bumble Bee
TTITLE11=Joe Hill Louis - We All Gotta Go Sometime
TTITLE12=Charley Patton - Down the Dirt Road Blues
TTITLE13=Memphis Jug Band - Sun Brimmer's Blues
TTITLE14=D.A. Hunt - Greyhound Blues
TTITLE15=James Cotton - Straighten Up Baby
TTITLE16=Robert Wilkins - Old Jim Canaan's
TTITLE17=Doctor Ross - Taylor Mae
TTITLE18=Rufus Thomas Jr - Walking In the Rain
TTITLE19=Walter Horton - We All Gotta Go Sometime
TTITLE20=Lost John Hunter and The Blind Bats - Schoolboy
TTITLE21=Pearl Dickson - Little Rock Blues
TTITLE22=Charlie McCoy - Last Time Blues
TTITLE23=Sleepy John Estes - Rats In My Kitchen
TTITLE24=Johnny Ace - Follow The Rule
EXTD=
EXTT0=
EXTT1=
EXTT2=
EXTT3=
EXTT4=
EXTT5=
EXTT6=
EXTT7=
EXTT8=
EXTT9=
EXTT10=
EXTT11=
EXTT12=
EXTT13=
EXTT14=
EXTT15=
EXTT16=
EXTT17=
EXTT18=
EXTT19=
EXTT20=
EXTT21=
EXTT22=
EXTT23=
EXTT24=
PLAYORDER=
